<?xml version="1.0" encoding="UTF-8"?>
<svg id="Calque_2" data-name="Calque 2" xmlns="http://www.w3.org/2000/svg" viewBox="0 0 734.34 500.21">
  <defs>
    <style>
      .cls-1 {
        fill: #ea5432;
      }

      .cls-1, .cls-2 {
        stroke-width: 0px;
      }

      .cls-2 {
        fill: #eedebc;
      }
    </style>
  </defs>
  <polygon class="cls-1" points="147.5 128.78 162.01 128.78 162.01 133.05 181.85 133.05 605.74 133.05 605.74 128.53 620.25 128.53 624.86 128.53 636.94 128.53 636.94 134.25 653.34 142.02 653.34 133.31 665.7 133.31 665.7 123.18 707.69 123.18 707.69 398.78 665.7 398.78 665.7 388.66 653.34 388.66 653.34 379.94 636.94 387.72 636.94 393.44 624.86 393.44 620.25 393.44 605.74 393.44 605.74 389.42 162.01 389.42 162.01 393.69 147.5 393.69 142.88 393.69 130.81 393.69 130.81 387.97 114.41 380.2 114.41 388.91 102.05 388.91 102.05 399.04 60.06 399.04 60.06 123.44 102.05 123.44 102.05 133.56 114.41 133.56 114.41 142.28 130.81 134.5 130.81 128.78 142.88 128.78 147.5 128.78"/>
  <g>
    <rect class="cls-2" x="-44.74" y="252.24" width="251.6" height="18" transform="translate(-180.18 342.29) rotate(-90)"/>
    <rect class="cls-2" x="-16.87" y="257.64" width="231.35" height="7.2" transform="translate(-162.43 360.05) rotate(-90)"/>
    <rect class="cls-2" x="25.95" y="257.64" width="240.91" height="7.2" transform="translate(-114.83 407.65) rotate(-90)"/>
    <polygon class="cls-2" points="107.49 158.84 107.49 191.23 107.49 363.64 135.5 376.91 135.5 191.23 135.5 145.56 107.49 158.84"/>
    <rect class="cls-2" x="560.9" y="251.98" width="251.6" height="18" transform="translate(947.68 -425.71) rotate(90)"/>
    <rect class="cls-2" x="553.27" y="257.38" width="231.35" height="7.2" transform="translate(929.92 -407.96) rotate(90)"/>
    <rect class="cls-2" x="500.88" y="257.38" width="240.91" height="7.2" transform="translate(882.32 -360.36) rotate(90)"/>
    <polygon class="cls-2" points="660.26 363.38 660.26 330.99 660.26 158.58 632.25 145.31 632.25 330.99 632.25 376.66 660.26 363.38"/>
  </g>
  <rect class="cls-2" x="154.28" y="145.06" width="15.57" height="231.86"/>
  <path class="cls-2" d="M154.28,145.05v232.36h458.85v-232.36H154.28ZM597.56,368.1H169.67v-8.29h427.89v8.29ZM597.56,162.82H169.67v-8.29h427.89v8.29Z"/>
</svg>