<?xml version="1.0" encoding="UTF-8"?>
<svg id="Calque_2" data-name="Calque 2" xmlns="http://www.w3.org/2000/svg" viewBox="0 0 689.14 358.2">
  <defs>
    <style>
      .cls-1 {
        fill: #ea5432;
      }

      .cls-1, .cls-2 {
        stroke-width: 0px;
      }

      .cls-2 {
        fill: #eedebc;
      }
    </style>
  </defs>
  <path class="cls-1" d="M-2.55,305.04L281.13,122.19c-5.96-7.41-9.41-16.76-9.41-26.61,0-23.39,19.03-42.42,42.42-42.42,11.92,0,22.71,4.94,30.42,12.89,7.71-7.94,18.5-12.89,30.42-12.89,23.39,0,42.42,19.03,42.42,42.42,0,9.85-3.45,19.2-9.41,26.61l283.68,182.85H-2.55Z"/>
  <path class="cls-2" d="M387.56,123.29c10.53-4.78,17.86-15.39,17.86-27.71,0-16.8-13.62-30.42-30.42-30.42s-30.42,13.62-30.42,30.42c0-16.8-13.62-30.42-30.42-30.42s-30.42,13.62-30.42,30.42c0,12.32,7.33,22.92,17.86,27.71L38.22,293.04h612.71L387.56,123.29Z"/>
  <polygon class="cls-1" points="344.57 118.12 97.48 293.04 591.66 293.04 344.57 118.12"/>
  <path class="cls-1" d="M286.73,132.73c15.18-11.24,32.03-23.24,47.5-34.18,0,0-.22,2.2-.22,2.2-7.48-7.37-14.91-14.79-22.26-22.28,0,0,2.68.09,2.68.09l-9.84,8.97c-3.27,3-6.6,5.93-9.9,8.9l.15-2.75,6.78,7.65,6.72,7.71-2.45-.19c2.61-2.08,5.21-4.19,7.85-6.24l7.89-6.2s.04,2.2.04,2.2l-6.36-5.14-6.35-5.16,1.46-.44c-1.53,3.98-3.05,7.96-4.62,11.93l-.61-.54c2.7-1.16,5.42-2.27,8.13-3.39-2.58,1.4-5.15,2.82-7.75,4.19l-.9.48.3-1.01c1.31-4.5,2.69-8.98,4.05-13.47,3.84,2.74,10.53,7.56,14.36,10.33,0,0,1.41,1.02,1.41,1.02l-1.37,1.18c-5.01,4.29-11.54,9.92-16.55,14.1-4.61-5-11.69-12.77-16.23-17.84,6.81-6.26,15.65-14.17,22.6-20.39,8.11,8.42,16.09,16.98,24.04,25.56-16.34,10.75-34.02,22.36-50.54,32.72h0Z"/>
  <path class="cls-1" d="M406.21,135.46c-17.4-10.74-36.23-22.86-53.47-33.98,0,0-1.42-.92-1.42-.92,8.03-8.77,16.09-17.51,24.29-26.13,6.97,6.25,15.78,14.12,22.61,20.4-4.55,5.06-11.62,12.83-16.23,17.84-4.99-4.16-11.56-9.82-16.55-14.1,0,0-1.37-1.18-1.37-1.18l1.41-1.02c3.84-2.77,10.52-7.59,14.36-10.33,1.35,4.49,2.74,8.97,4.05,13.47,0,0,.3,1.01.3,1.01l-.9-.48c-2.6-1.37-5.17-2.79-7.75-4.19,2.71,1.13,5.43,2.23,8.13,3.39,0,0-.61.54-.61.54-1.57-3.96-3.09-7.95-4.62-11.93l1.46.44-6.35,5.16-6.36,5.14s.04-2.2.04-2.2l7.89,6.2c2.64,2.06,5.24,4.16,7.85,6.24,0,0-2.45.19-2.45.19l6.72-7.71s6.78-7.65,6.78-7.65l.15,2.75c-3.3-2.97-6.63-5.9-9.9-8.9l-9.84-8.97,2.69-.1c-7.44,7.67-14.95,15.27-22.52,22.82,0,0-.24-2.2-.24-2.2,16.9,11.67,35.26,24.42,51.87,36.39h0Z"/>
</svg>