<?xml version="1.0" encoding="UTF-8"?>
<svg id="Calque_2" data-name="Calque 2" xmlns="http://www.w3.org/2000/svg" version="1.1" viewBox="0 0 801.56 500.21">
  <defs>
    <style>
      .cls-1 {
        fill: #ea5432;
      }

      .cls-1, .cls-2 {
        stroke-width: 0px;
      }

      .cls-2 {
        fill: #eedebc;
      }
    </style>
  </defs>
  <polygon class="cls-1" points="134.71 128.78 149.22 128.78 149.22 133.05 169.06 133.05 672.96 133.05 672.96 128.53 687.47 128.53 692.08 128.53 704.16 128.53 704.16 134.25 720.56 142.02 720.56 133.31 732.91 133.31 732.91 123.18 774.91 123.18 774.91 398.78 732.91 398.78 732.91 388.66 720.56 388.66 720.56 379.94 704.16 387.72 704.16 393.44 692.08 393.44 687.47 393.44 672.96 393.44 672.96 389.42 149.22 389.42 149.22 393.69 134.71 393.69 130.1 393.69 118.02 393.69 118.02 387.97 101.62 380.2 101.62 388.91 89.27 388.91 89.27 399.04 47.27 399.04 47.27 123.44 89.27 123.44 89.27 133.56 101.62 133.56 101.62 142.28 118.02 134.5 118.02 128.78 130.1 128.78 134.71 128.78"/>
  <g>
    <rect class="cls-2" x="-57.53" y="252.24" width="251.6" height="18" transform="translate(-192.97 329.51) rotate(-90)"/>
    <rect class="cls-2" x="-29.65" y="257.64" width="231.35" height="7.2" transform="translate(-175.22 347.26) rotate(-90)"/>
    <rect class="cls-2" x="13.17" y="257.64" width="240.91" height="7.2" transform="translate(-127.61 394.86) rotate(-90)"/>
    <polygon class="cls-2" points="94.7 158.84 94.7 191.23 94.7 363.64 122.71 376.91 122.71 191.23 122.71 145.56 94.7 158.84"/>
    <rect class="cls-2" x="628.11" y="251.98" width="251.6" height="18" transform="translate(1014.9 -492.93) rotate(90)"/>
    <rect class="cls-2" x="620.48" y="257.38" width="231.35" height="7.2" transform="translate(997.14 -475.18) rotate(90)"/>
    <rect class="cls-2" x="568.1" y="257.38" width="240.91" height="7.2" transform="translate(949.54 -427.57) rotate(90)"/>
    <polygon class="cls-2" points="727.48 363.38 727.48 330.99 727.48 158.58 699.47 145.31 699.47 330.99 699.47 376.66 727.48 363.38"/>
  </g>
  <rect class="cls-2" x="141.5" y="145.06" width="15.57" height="231.86"/>
  <path class="cls-2" d="M141.5,145.05v232.36h538.85v-232.36H141.5ZM664.78,368.1H156.89v-8.29h507.89v8.29ZM664.78,162.82H156.89v-8.29h507.89v8.29Z"/>
</svg>